PathFileType	4	(X/Y/Z)	./motion_analysis/DM_ngait_tm_med1_new.trc
DataRate	CameraRate	NumFrames	NumMarkers	Units	OrigDataRate	OrigDataStartFrame	OrigNumFrames
120	120	4	68	mm	120	772	2061
Frame#	Time	Sternum			Neck			R_Shoulder			L_Shoulder			Xiphoid			Thoracic			R_Asis			L_Asis			R_Psis			L_Psis			Lumbar			R_Elbow			R_ElbowMedial			R_ShoulderAnterior			R_ShoulderPosterior			R_Wrist			R_Radius			R_Ulna			L_Elbow			L_ElbowMedial			L_ShoulderAnterior			L_ShoulderPosterior			L_Wrist			L_Ulna			L_Radius			L_Thigh_Superior			L_Thigh_Inferior			L_Thigh_Lateral			L_Knee_Lateral			L_Knee_Medial			L_Patella			L_Shank_Superior			L_Shank_Inferior			L_Shank_Lateral			L_Ankle_Lateral			L_Ankle_Medial			R_Thigh_Superior			R_Thigh_Inferior			R_Thigh_Lateral			R_Knee_Lateral			R_Knee_Medial			R_Patella			R_Shank_Superior			R_Shank_Inferior			R_Shank_Lateral			R_Ankle_Lateral			RankleMedial			R_Heel			R_Toe			R_Midfoot_Medial			R_Midfoot_Lateral			R_Hindfoot			R_Midfoot_Superior			R_ToeMedial			R_ToeLateral			L_Heel			L_Toe			L_Midfoot_Medial			L_Midfoot_Lateral			L_Hindfoot			L_Midfoot_Superior			L_ToeMedial			L_ToeLateral			Oglobal			Sacral			Xglobal			Yglobal			Zglobal			
		X1	Y1	Z1	X2	Y2	Z2	X3	Y3	Z3	X4	Y4	Z4	X5	Y5	Z5	X6	Y6	Z6	X7	Y7	Z7	X8	Y8	Z8	X9	Y9	Z9	X10	Y10	Z10	X11	Y11	Z11	X12	Y12	Z12	X13	Y13	Z13	X14	Y14	Z14	X15	Y15	Z15	X16	Y16	Z16	X17	Y17	Z17	X18	Y18	Z18	X19	Y19	Z19	X20	Y20	Z20	X21	Y21	Z21	X22	Y22	Z22	X23	Y23	Z23	X24	Y24	Z24	X25	Y25	Z25	X26	Y26	Z26	X27	Y27	Z27	X28	Y28	Z28	X29	Y29	Z29	X30	Y30	Z30	X31	Y31	Z31	X32	Y32	Z32	X33	Y33	Z33	X34	Y34	Z34	X35	Y35	Z35	X36	Y36	Z36	X37	Y37	Z37	X38	Y38	Z38	X39	Y39	Z39	X40	Y40	Z40	X41	Y41	Z41	X42	Y42	Z42	X43	Y43	Z43	X44	Y44	Z44	X45	Y45	Z45	X46	Y46	Z46	X47	Y47	Z47	X48	Y48	Z48	X49	Y49	Z49	X50	Y50	Z50	X51	Y51	Z51	X52	Y52	Z52	X53	Y53	Z53	X54	Y54	Z54	X55	Y55	Z55	X56	Y56	Z56	X57	Y57	Z57	X58	Y58	Z58	X59	Y59	Z59	X60	Y60	Z60	X61	Y61	Z61	X62	Y62	Z62	X63	Y63	Z63	X64	Y64	Z64	X65	Y65	Z65	X66	Y66	Z66	X67	Y67	Z67	X68	Y68	Z68	

773	6.441667	-983.6849999999999	1393.21	510.594	-830.5650000000001	1481.88	505.467	-925.952	1436.12	341.41	-892.568	1425.3	682.912	-1003.02	1229.3	504.27	-739.053	1289.49	508.715	-926.059	997.891	366.416	-941.901	1005.1	642.52	-727.996	1038.64	484.611	-733.431	1036.69	562.893	-731.817	1087.19	519.702	-1009.49	1136.68	237.873	-0	0	0	-0	0	0	-0	0	0	-1206.03	956.8200000000001	298.641	-1180.84	951.573	337.729	-1179.55	932.128	266.774	-878.95	1085.9	774.178	-0	0	0	-0	0	0	-0	0	0	-981.799	837.857	760.813	-936.0890000000001	839.27	777.457	-976.352	853.3150000000001	715.639	-894.95	828.364	671.803	-952.066	615.0359999999999	608.9109999999999	-985.962	709.314	589.064	-0	0	0	-0	0	0	-991.721	531.477	542.042	-929.09	459.044	616.624	-887.824	191.038	616.625	-934.247	316.051	543.354	-0	0	0	-0	0	0	-849.687	817.107	332.776	-889.818	603.433	348.864	-974.0890000000001	672.3339999999999	384.584	-0	0	0	-0	0	0	-974.946	498.041	392.817	-0	0	0	-655.408	318.662	360.731	-798.659	361.511	411.028	-0	0	0	-0	0	0	-526.751	269.841	436.677	-721.569	59.859	354.242	-669.579	89.97799999999999	428.582	-629.157	109.078	320.167	-555.841	182.174	362.258	-674.353	199.998	383.24	-701.067	68.611	407.31	-671.609	82.3407	320.041	-803.106	76.12090000000001	564.276	-1102.04	70.80589999999999	564.35	-1022.42	49.6912	515.611	-1010.73	50.0541	629.494	-902.5069999999999	43.5992	620.752	-965.777	134.82	568.76	-1064.28	52.9104	520.122	-1065.04	53.0676	617.761	-0	0	0	-730.7140000000001	1037.67	523.752	-200	0	0	-0	0	200	-0	200	0	
774	6.45	-983.133	1393.69	510.857	-830.026	1482.4	506.065	-925.147	1436.5	341.944	-892.522	1426.06	683.423	-1002.28	1229.66	504.811	-738.378	1290.12	509.502	-925.146	998.347	366.931	-940.835	1005.69	643.356	-727.1079999999999	1039.3	485.096	-732.524	1037.27	563.314	-730.8630000000001	1087.83	520.207	-1010	1137.57	238.664	-0	0	0	-0	0	0	-0	0	0	-1206.25	957.093	298.646	-1181.11	951.907	337.873	-1179.72	932.505	266.943	-881.332	1086.78	775.158	-0	0	0	-0	0	0	-0	0	0	-986.722	839.8200000000001	760.928	-941.184	840.836	778.138	-980.745	855.263	715.861	-894.145	829.021	672.0359999999999	-948.174	614.881	609.121	-982.99	709.024	588.318	-0	0	0	-0	0	0	-986.918	531.02	542.482	-923.9299999999999	458.906	616.939	-881.378	191.005	616.55	-928.45	315.975	543.772	-0	0	0	-0	0	0	-849.785	817.825	332.841	-893.318	604.871	348.299	-977.5170000000001	675.173	385.3	-0	0	0	-0	0	0	-980.21	500.825	392.09	-0	0	0	-664.4	315.346	360.377	-806.878	361.077	409.922	-0	0	0	-0	0	0	-536.683	262.574	436.17	-738.093	58.4783	353.239	-684.732	87.0185	427.346	-643.74	105.35	319.013	-568.4450000000001	176.102	361.413	-686.325	197.282	382.416	-717.022	66.85209999999999	406.134	-687.396	79.80119999999999	318.968	-796.41	76.0881	564.417	-1095.25	70.6542	564.36	-1015.66	49.642	515.472	-1004.12	50.0592	629.37	-895.735	43.5986	620.727	-958.985	134.759	568.653	-1057.5	52.836	520.075	-1058.24	52.9843	617.775	-0	0	0	-729.816	1038.29	524.205	-200	0	0	-0	0	200	-0	200	0	
775	6.458333	-982.62	1394.01	511.159	-829.466	1482.89	506.608	-924.174	1436.83	342.088	-892.453	1426.69	683.88	-1001.5	1229.95	505.127	-737.712	1290.73	510.244	-924.193	998.741	367.361	-939.758	1006.13	644.026	-726.159	1039.86	485.478	-731.586	1037.78	563.654	-729.893	1088.37	520.64	-1010.46	1138.31	239.458	-0	0	0	-0	0	0	-0	0	0	-1206.46	957.322	298.831	-1181.39	952.217	338.084	-1179.76	932.823	267.075	-883.749	1087.57	776.009	-0	0	0	-0	0	0	-0	0	0	-991.638	841.717	760.914	-946.272	842.331	778.6559999999999	-984.989	857.136	715.875	-892.837	829.708	672.856	-944.25	614.682	609.494	-979.657	708.688	587.865	-0	0	0	-0	0	0	-982.101	530.572	542.9450000000001	-918.6	458.798	617.229	-874.909	191.099	616.625	-922.65	315.843	543.851	-0	0	0	-0	0	0	-849.706	818.389	332.832	-896.687	606.251	347.848	-978.809	677.641	383.821	-0	0	0	-0	0	0	-985.3099999999999	503.633	391.366	-0	0	0	-673.687	311.678	359.839	-815.194	360.585	409.008	-0	0	0	-0	0	0	-547.043	254.673	435.275	-755.229	57.4722	352.344	-700.544	83.8546	426.632	-659.476	101.21	318.167	-581.776	169.403	360.38	-698.606	194.355	382.112	-734.003	65.0556	404.811	-703.824	77.2186	317.983	-789.552	76.1533	564.1950000000001	-1088.52	70.595	564.345	-1008.87	49.5061	515.625	-997.14	50.0036	629.504	-888.953	43.6185	620.751	-952.22	134.72	568.662	-1050.75	52.8042	520.112	-1051.47	52.9331	617.797	-0	0	0	-728.873	1038.82	524.566	-200	0	0	-0	0	200	-0	200	0	
776	6.466667	-981.96	1394.34	511.485	-828.871	1483.31	507.168	-923.297	1437.06	342.499	-892.331	1427.32	684.289	-1000.71	1230.29	505.484	-736.971	1291.28	510.928	-923.308	998.872	367.946	-938.588	1006.55	644.704	-725.226	1040.41	485.829	-730.5549999999999	1038.29	564.0119999999999	-728.951	1088.9	520.958	-1010.79	1138.93	240.219	-0	0	0	-0	0	0	-0	0	0	-1206.64	957.526	299.069	-1181.58	952.5	338.466	-1179.84	933.064	267.367	-886.111	1088.39	776.878	-0	0	0	-0	0	0	-0	0	0	-996.502	843.5839999999999	760.745	-951.299	843.831	779.076	-989.204	858.909	715.831	-892.621	830.146	672.629	-940.3049999999999	614.477	609.779	-976.623	708.265	587.58	-0	0	0	-0	0	0	-977.287	530.1319999999999	543.422	-913.2089999999999	458.623	617.616	-868.4059999999999	191.13	616.6849999999999	-916.798	315.765	544.324	-0	0	0	-0	0	0	-849.422	818.859	332.811	-899.841	607.701	347.356	-981.474	680.29	383.476	-0	0	0	-0	0	0	-990.886	507.122	391.113	-0	0	0	-683.359	307.566	359.075	-823.266	360.084	408.083	-0	0	0	-0	0	0	-557.87	246.233	434.006	-773.001	56.5015	351.542	-717.728	81.3657	425.047	-675.727	97.0604	316.687	-595.7809999999999	162.354	359.126	-712.052	191.469	380.252	-751.454	63.2691	403.859	-721.034	74.49930000000001	316.96	-782.852	76.20610000000001	564.147	-1081.83	70.5133	564.4400000000001	-1002.17	49.4883	515.647	-990.404	49.9356	629.522	-882.165	43.622	620.691	-945.5170000000001	134.691	568.703	-1044.07	52.7302	520.215	-1044.79	52.7949	617.761	-0	0	0	-727.89	1039.35	524.92	-200	0	0	-0	0	200	-0	200	0	
